# AST/ASF file generated using VICON BodyLanguage
# -----------------------------------------------
:version 1.10
:name VICON
:units
  mass 1.0
  length 0.45
  angle deg
:documentation
   .ast/.asf automatically generated from VICON data using
   VICON BodyBuilder and BodyLanguage model FoxedUp or BRILLIANT.MOD
:root
   order TX TY TZ RX RY RZ
   axis XYZ
   position 0 0 0  
   orientation 0 0 0 
:bonedata
  begin
     id 1 
     name lhipjoint
     direction 0.543289 -0.788407 0.288535 
     length 2.57127 
     axis 0 0 0  XYZ
  end
  begin
     id 2 
     name lfemur
     direction 0.34202 -0.939693 0  
     length 8.47298  
     axis 0 0 20  XYZ
    dof rx ry rz
    limits (-160.0 20.0)
           (-70.0 70.0)
           (-60.0 70.0)
  end
  begin
     id 3 
     name ltibia
     direction 0.34202 -0.939693 0   
     length 8.13367   
     axis 0 0 20   XYZ
    dof rx
    limits (-10.0 170.0)
  end
  begin
     id 4 
     name lfoot
     direction 0.114037 -0.313314 0.942778   
     length 2.67113   
     axis -90 7.62852e-016 20   XYZ
    dof rx rz
    limits (-45.0 90.0)
           (-70.0 20.0)
  end
  begin
     id 5 
     name ltoes
     direction 1.536e-011 -4.21847e-011 1   
     length 1.32217   
     axis -90 7.62852e-016 20   XYZ
    dof rx
    limits (-90.0 20.0)
  end
  begin
     id 6 
     name rhipjoint
     direction -0.571293 -0.770752 0.282074   
     length 2.63017  
     axis 0 0 0  XYZ 
  end
  begin
     id 7 
     name rfemur
     direction -0.34202 -0.939693 0   
     length 8.60885   
     axis 0 0 -20   XYZ
    dof rx ry rz
    limits (-160.0 20.0)
           (-70.0 70.0)
           (-70.0 60.0)
  end
  begin
     id 8 
     name rtibia
     direction -0.34202 -0.939693 0   
     length 8.07673   
     axis 0 0 -20   XYZ
    dof rx
    limits (-10.0 170.0)
 end
 begin
     id 9 
     name rfoot
     direction -0.121336 -0.333368 0.934956   
     length 2.81602  
     axis -90 -7.62852e-016 -20   XYZ
    dof rx rz
    limits (-45.0 90.0)
           (-20.0 70.0)
  end
  begin
     id 10 
     name rtoes
     direction -1.53491e-011 -4.21808e-011 1   
     length 1.38905   
     axis -90 -7.62852e-016 -20   XYZ
    dof rx
    limits (-90.0 20.0)
  end
  begin
     id 11 
     name lowerback
     direction 0.0136776 0.999869 -0.00861835   
     length 2.14087   
     axis 0 0 0   XYZ
    dof rx ry rz
    limits (-20.0 45.0)
           (-30.0 30.0)
           (-30.0 30.0)
  end
  begin
     id 12 
     name upperback
     direction -0.00789158 0.999804 0.0181308   
     length 2.14151   
     axis 0 0 0   XYZ
    dof rx ry rz
    limits (-20.0 45.0)
           (-30.0 30.0)
           (-30.0 30.0)
  end
  begin
     id 13 
     name thorax
     direction -0.0135231 0.999666 0.0220247   
     length 2.13644   
     axis 0 0 0   XYZ
    dof rx ry rz
    limits (-20.0 45.0)
           (-30.0 30.0)
           (-30.0 30.0)
  end
  begin
     id 14 
     name lowerneck
     direction -0.0392259 0.997317 0.0618018   
     length 1.65045   
     axis 0 0 0   XYZ
    dof rx ry rz
    limits (-20.0 45.0)
           (-30.0 30.0)
           (-30.0 30.0)
  end
  begin
     id 15 
     name upperneck
     direction 0.0765547 0.994276 -0.0745319   
     length 1.66045   
     axis 0 0 0   XYZ
    dof rx ry rz
    limits (-20.0 45.0)
           (-30.0 30.0)
           (-30.0 30.0)
  end
  begin
     id 16
     name head
     direction 0.0241564 0.999031 -0.036785  
     length 1.66594  
     axis 0 0 0   XYZ
    dof rx ry rz
    limits (-20.0 45.0)
           (-30.0 30.0)
           (-30.0 30.0)
  end
  begin
     id 17 
     name lclavicle
     direction 0.967398 0.249018 0.0461573  
     length 3.75176  
     axis 0 0 0   XYZ
    dof ry rz
    limits (-20.0 10.0)
           (0.0 20.0)
  end
  begin
     id 18 
     name lhumerus
     direction 1 -4.48963e-011 -3.05005e-027   
     length 5.93342   
     axis 180 -30 -90   XYZ
    dof rx ry rz
    limits (-60.0 90.0)
           (-90.0 90.0)
           (-90.0 90.0)
  end
  begin
     id 19
     name lradius
     direction 1 -4.48957e-011 1.07006e-026   
     length 3.94763   
     axis 180 -30 -90   XYZ
    dof rx
    limits (-10.0 170.0)
  end
  begin
     id 20
     name lwrist
     direction 1 -4.48978e-011 1.92422e-026   
     length 1.97382   
     axis -1.18182e-014 90 90   XYZ
    dof ry
    limits (-180.0 0.0)
 end
  begin
     id 21 
     name lhand
     direction 1 -4.48931e-011 3.84844e-026   
     length 0.560187   
     axis -2.45563e-014 90 90   XYZ
    dof rx rz
    limits (-90.0 90.0)
           (-45.0 45.0)
  end
  begin
     id 22 
     name lfingers
     direction 1 -4.48952e-011 7.69687e-026   
     length 0.451637   
     axis -4.91126e-014 90 90   XYZ
    dof rx
    limits (0.0 90.0)
  end
  begin
     id 23
     name lthumb
     direction 0.707107 -6.34901e-011 0.707107   
     length 0.648463   
     axis -90 45 2.85299e-015   XYZ
    dof rx rz
    limits (-45.0 45.0)
           (-45.0 45.0)
  end
  begin
     id 24 
     name rclavicle
     direction -0.965946 0.258716 0.00371831   
     length 3.63667  
     axis 0 0 0   XYZ 
    dof ry rz
    limits (-10.0 20.0)
           (-20.0 0.0)
  end
  begin
     id 25 
     name rhumerus
     direction -1 -4.48966e-011 -1.78361e-028  
     length 6.28647   
     axis 180 30 90   XYZ
    dof rx ry rz
    limits (-90.0 60.0)
           (-90.0 90.0)
           (-90.0 90.0)
  end
  begin
     id 26 
     name rradius
     direction -1 -4.48961e-011 1.05248e-026   
     length 3.81645   
     axis 180 30 90   XYZ
    dof rx
    limits (-10.0 170.0)
  end
  begin
     id 27 
     name rwrist
     direction -1 -4.48979e-011 1.92422e-026   
     length 1.90822   
     axis -1.18182e-014 -90 -90   XYZ
    dof ry
    limits (-180.0 0.0)
  end
  begin
     id 28
     name rhand
     direction -1 -4.48937e-011 3.84844e-026   
     length 0.646185   
     axis -2.45563e-014 -90 -90   XYZ
    dof rx rz
    limits (-90.0 90.0)
           (-45.0 45.0)
  end
  begin
     id 29
     name rfingers
     direction -1 -4.48953e-011 7.69687e-026   
     length 0.520971   
     axis -4.91126e-014 -90 -90   XYZ
    dof rx
    limits (0.0 90.0)
  end
  begin
     id 30
     name rthumb
     direction -0.707107 -6.3494e-011 0.707107   
     length 0.748013   
     axis -90 -45 -2.85299e-015   XYZ
    dof rx rz
    limits (-45.0 45.0)
           (-45.0 45.0)
  end
:hierarchy
  begin
    root lhipjoint rhipjoint lowerback
    lhipjoint lfemur
    lfemur ltibia
    ltibia lfoot
    lfoot ltoes
    rhipjoint rfemur
    rfemur rtibia
    rtibia rfoot
    rfoot rtoes
    lowerback upperback
    upperback thorax
    thorax lowerneck lclavicle rclavicle
    lowerneck upperneck
    upperneck head
    lclavicle lhumerus
    lhumerus lradius
    lradius lwrist
    lwrist lhand lthumb
    lhand lfingers
    rclavicle rhumerus
    rhumerus rradius
    rradius rwrist
    rwrist rhand rthumb
    rhand rfingers
  end

#!OML:ASF H:\HAZMAT1\Patient Classification 1\Patient 3\Session 1\dancer.ASF
:FULLY-SPECIFIED
:DEGREES
75
upperback -2.209880 -5.497520 -1.058320
rfoot -27.770700 -19.440100
lradius 20.303699
lthumb 17.779499 48.972099
rradius 56.198700
lwrist -21.256100
rhand -13.731900 -16.178900
rhumerus -35.828201 29.051001 -101.322998
lowerneck 0.367132 -12.014300 -9.442760
lhand -8.134370 19.764900
ltibia 44.916901
head 4.332100 -8.230410 4.311990
rwrist 2.477290
lfingers 7.125020
rtoes -14.370300
lowerback 0.171556 -4.140630 1.643510
rfingers 7.125020
lclavicle 0.000000 -0.000000
upperneck 8.572780 -16.887501 12.010500
rfemur -16.117001 -11.150100 18.423100
thorax -2.625070 -2.780600 -1.855820
rclavicle 0.000000 -0.000000
rtibia 41.033600
lfoot -26.241301 26.943701
lhumerus -55.127602 10.449500 76.822701
rthumb 12.387600 -45.791901
root 3.649080 18.413300 27.212400 -513.388977 65.992699 196.548996
ltoes 8.330750
lfemur -42.324799 -10.677500 8.402960
76
upperback -1.853910 -5.338680 -0.540816
rfoot -27.168501 -2.983550
lradius 18.112801
lthumb 17.416201 46.553398
rradius 53.848301
lwrist -26.878099
rhand -17.604200 -18.552999
rhumerus -30.189400 17.332300 -84.889999
lowerneck 0.660000 -11.027800 -8.346930
lhand -8.511960 17.313601
ltibia 47.593399
head 3.848400 -7.614930 3.419990
rwrist 3.633680
lfingers 7.125020
rtoes -4.795370
lowerback 0.818395 -4.036940 2.801930
rfingers 7.125020
lclavicle -0.000000 -0.000000
upperneck 8.723990 -15.401200 9.054620
rfemur -23.153900 27.367399 21.425800
thorax -2.671400 -2.724920 -1.936310
rclavicle -0.000000 -0.000000
rtibia 43.317402
lfoot -11.672900 1.845960
lhumerus -60.216000 12.646300 66.415100
rthumb 8.652260 -48.355701
root 4.812900 18.524599 30.148001 -362.024994 48.678902 348.571014
ltoes -3.660190
lfemur -44.370201 -16.547701 0.832682
77
upperback -1.308890 -2.875940 -1.311240
rfoot -26.645800 -1.048090
lradius 15.524200
lthumb 12.878700 55.916801
rradius 45.619099
lwrist -34.668999
rhand -21.642900 -22.498501
rhumerus -34.037201 4.748220 -57.423401
lowerneck -1.108470 -3.501490 -0.685027
lhand -13.222500 26.334101
ltibia 41.787701
head 3.229220 -2.371190 0.993625
rwrist 3.680800
lfingers 7.125020
rtoes 1.720880
lowerback -1.094320 -2.130880 5.063560
rfingers 7.125020
lclavicle 0.000000 -0.000000
upperneck 9.122000 -4.946020 3.182190
rfemur -11.963300 20.494101 26.923500
thorax -1.052420 -1.497930 -4.186580
rclavicle 0.000000 -0.000000
rtibia 43.655701
lfoot -3.751980 13.300100
lhumerus -62.601200 11.417500 28.228500
rthumb 4.753600 -52.425201
root 6.714310 18.665501 32.866199 -358.334015 7.215670 353.744995
ltoes 6.539550
lfemur -40.093800 -26.494499 1.742210
78
upperback -2.141980 -2.280130 -3.119680
rfoot -27.444000 -8.384720
lradius 18.736601
lthumb 6.123710 61.207600
rradius 32.681000
lwrist -25.718599
rhand -30.858900 -30.945000
rhumerus -56.376301 -1.923450 -37.022598
lowerneck -4.590500 2.388460 2.655710
lhand -20.223801 31.316099
ltibia 41.820000
head 3.858660 1.560960 0.250905
rwrist 3.859290
lfingers 7.125020
rtoes -10.634500
lowerback -0.984932 -1.674330 3.995170
rfingers 7.125020
lclavicle -0.000000 -0.000000
upperneck 9.310810 2.815030 1.762420
rfemur -19.364599 7.587700 22.650499
thorax -1.941770 -1.246980 -5.452710
rclavicle -0.000000 -0.000000
rtibia 57.253101
lfoot -19.632999 5.188270
lhumerus -41.169300 19.899200 23.412300
rthumb -4.146900 -60.884399
root 8.061630 18.557600 34.678501 -356.725006 -6.330690 357.924011
ltoes -0.340586
lfemur -30.733801 -27.898001 -5.420100
79
upperback -2.158080 -3.777530 -2.786640
rfoot -27.089701 -13.675300
lradius 23.824100
lthumb 5.291940 58.972599
rradius 18.686600
lwrist -17.394899
rhand -22.795799 -32.577702
rhumerus -75.444298 -13.231200 -34.953201
lowerneck -4.098980 4.912170 3.519770
lhand -21.085300 29.058599
ltibia 40.969700
head 2.814040 3.231360 -0.702059
rwrist 21.952200
lfingers 7.125020
rtoes 6.253010
lowerback -2.041200 -2.758750 5.512160
rfingers 7.125020
lclavicle 0.000000 0.000000
upperneck 6.090450 6.405800 -1.058980
rfemur -21.381901 17.597799 21.589001
thorax -1.636110 -2.014350 -5.990510
rclavicle 0.000000 0.000000
rtibia 42.363998
lfoot -19.749201 10.815200
lhumerus -19.116301 17.990499 57.059399
rthumb 3.640290 -62.526402
root 8.344500 18.830500 35.569099 -353.071991 -8.733510 359.147003
ltoes 6.301820
lfemur -30.786400 -29.653000 -7.793330
